<?xml version="1.0" encoding="UTF-8"?>
<svg xmlns="http://www.w3.org/2000/svg" width="1024" height="1024" viewBox="0 0 1024 1024" role="img" aria-hidden="true" focusable="false">
  <style>
  .outer { fill: #ffffff; stroke: #111111; stroke-width: 6; stroke-linecap: round; stroke-linejoin: round; }
  .outer-none { fill: none; stroke: #111111; stroke-width: 6; stroke-linecap: round; stroke-linejoin: round; }
  .struct { fill: none; stroke: #111111; stroke-width: 4; stroke-linecap: round; stroke-linejoin: round; }
  .struct-fill { fill: #ffffff; stroke: #111111; stroke-width: 4; stroke-linecap: round; stroke-linejoin: round; }
  .fine { fill: none; stroke: #111111; stroke-width: 2.5; stroke-linecap: round; stroke-linejoin: round; }
  .light { fill: #dddddd; stroke: #111111; stroke-width: 4; stroke-linecap: round; stroke-linejoin: round; }
  .mid { fill: #bcbcbc; stroke: #111111; stroke-width: 4; stroke-linecap: round; stroke-linejoin: round; }
  .ink { fill: #111111; stroke: none; }
</style>
  
<g transform="rotate(8 512 512)">
  <!-- handle -->
  <path class="outer" d="M486 118 Q512 98 538 118 L543 626 Q515 646 487 626 Z"/>
  <path class="struct" d="M500 142 L504 608"/>
  <path class="fine" d="M495 180 L535 160 M496 230 L536 210 M497 280 L537 260"/>
  <!-- cup neck -->
  <path class="outer" d="M468 610 Q515 588 561 610 L566 675 Q515 698 463 675 Z"/>
  <!-- simple rubber cup -->
  <path class="outer" d="M324 760 Q340 676 414 646 Q515 603 616 646 Q690 676 706 760 Q638 824 515 828 Q392 824 324 760 Z"/>
  <path class="struct" d="M324 760 Q410 792 515 792 Q620 792 706 760"/>
  <path class="fine" d="M365 726 Q380 688 420 672 M665 726 Q650 688 610 672"/>
</g>

</svg>
